<svg width="29" height="41" viewBox="0 0 29 41" fill="none" xmlns="http://www.w3.org/2000/svg">
<g clip-path="url(#clip0_0_68)">
<path d="M13.7195 1.68994C6.15457 1.68994 0 7.84451 0 15.4095C0 17.9654 0.708003 20.4598 2.04794 22.6238L12.9386 40.1739C13.1472 40.5101 13.5147 40.7143 13.91 40.7143C13.913 40.7143 13.916 40.7143 13.9191 40.7143C14.3178 40.7112 14.6861 40.5006 14.8909 40.1585L25.5039 22.4384C26.7699 20.3201 27.439 17.8896 27.439 15.4095C27.439 7.84451 21.2845 1.68994 13.7195 1.68994ZM23.5416 21.2645L13.8927 37.3748L3.99139 21.4191C2.87607 19.6178 2.27134 17.5398 2.27134 15.4095C2.27134 9.10534 7.4154 3.96128 13.7195 3.96128C20.0236 3.96128 25.1601 9.10534 25.1601 15.4095C25.1601 17.4766 24.5952 19.5015 23.5416 21.2645Z" fill="#03BEAE"/>
<path d="M13.7195 8.5498C9.93703 8.5498 6.85974 11.6271 6.85974 15.4096C6.85974 19.1679 9.88695 22.2693 13.7195 22.2693C17.5993 22.2693 20.5793 19.1266 20.5793 15.4096C20.5793 11.6271 17.502 8.5498 13.7195 8.5498ZM13.7195 19.998C11.1847 19.998 9.13108 17.9375 9.13108 15.4096C9.13108 12.8879 11.1979 10.8211 13.7195 10.8211C16.2411 10.8211 18.3003 12.8879 18.3003 15.4096C18.3003 17.9006 16.2945 19.998 13.7195 19.998Z" fill="#03BEAE"/>
</g>
<defs>
<clipPath id="clip0_0_68">
<rect width="28.2927" height="40" fill="white" transform="translate(0 0.766602)"/>
</clipPath>
</defs>
</svg>
