<svg width="151" height="49" viewBox="0 0 151 49" fill="none" xmlns="http://www.w3.org/2000/svg">
<path d="M139.348 38.8757L4.24256 48.8777C2.09888 49.0375 0.538415 47.1914 0.77485 44.7778L3.04463 21.796C3.28422 19.3794 5.23244 17.2762 7.37927 17.1163L142.484 7.11428C144.628 6.95756 146.189 8.80061 145.952 11.2173L143.682 34.1991C143.443 36.6126 141.495 38.7189 139.348 38.8757Z" fill="#F29119"/>
<path d="M143.087 34.2528L7.98132 44.2423C5.83449 44.4022 4.27402 42.556 4.51361 40.1424L6.78338 17.1575C7.02297 14.744 8.99011 12.6376 11.118 12.4809L146.223 2.47889C148.367 2.31903 149.927 4.16522 149.691 6.57874L147.418 29.5511C147.182 31.9772 145.23 34.0804 143.087 34.2528Z" fill="white"/>
<path d="M7.72601 44.7216C7.25094 44.7257 6.77996 44.6339 6.3416 44.4518C5.90323 44.2697 5.50659 44.0011 5.17566 43.6622C4.73712 43.1854 4.40862 42.6192 4.21313 42.0031C4.01765 41.3869 3.9599 40.7358 4.04393 40.0951L6.3137 17.1134C6.57536 14.4741 8.71273 12.186 11.0834 12.0105L146.189 2.00843C146.71 1.96311 147.235 2.03382 147.726 2.21544C148.217 2.39707 148.661 2.68505 149.026 3.05848C149.464 3.53528 149.793 4.10142 149.989 4.71746C150.185 5.33351 150.244 5.98463 150.161 6.62547L147.904 29.6073C147.642 32.2465 145.501 34.5346 143.134 34.7102L8.02864 44.709C7.93407 44.7184 7.82058 44.7216 7.72601 44.7216ZM146.475 2.93937H146.258L11.1527 12.9383C9.26126 13.0793 7.46751 15.0289 7.25629 17.1948L4.98336 40.1766C4.91401 40.6815 4.95591 41.1952 5.10615 41.6823C5.25639 42.1695 5.51138 42.6183 5.85344 42.9977C6.12361 43.2713 6.45155 43.4819 6.81355 43.6141C7.17555 43.7464 7.56258 43.7971 7.94668 43.7625L143.052 33.7604C144.943 33.6225 146.734 31.6729 146.948 29.507L149.218 6.52518C149.288 6.02059 149.246 5.50695 149.097 5.01984C148.947 4.53274 148.693 4.08381 148.351 3.70417C148.106 3.45832 147.814 3.26394 147.491 3.13256C147.169 3.00119 146.824 2.93549 146.475 2.93937Z" fill="#95C9BF"/>
<path d="M55.2266 39.0005C54.4884 39.0521 53.8358 39.0376 53.2688 38.957C52.7018 38.8763 52.1927 38.6212 51.7417 38.1916C51.3106 37.7607 51.0615 37.0664 50.9946 36.1087C50.9011 34.772 51.1746 32.9484 51.815 30.6381C52.4753 28.3264 53.3844 25.9873 54.5421 23.6208C53.5487 23.7504 52.7711 23.9552 52.2093 24.235C51.6474 24.5149 51.2941 24.9105 51.1495 25.4219C51.2293 25.4163 51.316 25.5104 51.4098 25.7044C51.5235 25.8969 51.588 26.1029 51.6034 26.3224C51.6285 26.6815 51.4891 26.982 51.1852 27.2237C50.88 27.4456 50.4879 27.5732 50.0091 27.6067C49.4505 27.6458 48.9911 27.5275 48.631 27.252C48.2709 26.9764 48.0713 26.5593 48.0322 26.0007C47.9848 25.3224 48.2009 24.6857 48.6806 24.0908C49.1802 23.4945 49.8877 23.004 50.8031 22.6192C51.7171 22.2144 52.7427 21.9723 53.8799 21.8928C54.2989 21.8635 54.8197 21.8571 55.4424 21.8737C56.8971 19.1657 58.475 16.9302 60.1761 15.1672C61.8958 13.3829 63.5837 12.4328 65.2396 12.317C66.1973 12.2501 66.9951 12.3346 67.6332 12.5707L64.4749 34.9255L60.1654 35.2268L61.7101 24.2022C60.9482 23.9147 60.2524 23.7127 59.6228 23.5963C58.9931 23.48 58.327 23.4163 57.6246 23.4053C56.6589 25.9388 55.897 28.5182 55.3388 31.1436C54.7991 33.7475 54.583 35.8177 54.6904 37.3539C54.7434 38.1121 54.9222 38.6609 55.2266 39.0005ZM63.0539 14.6051C62.2281 15.124 61.3903 16.0446 60.5405 17.3671C59.7092 18.6683 58.9167 20.2374 58.163 22.0745C59.6191 22.2533 60.8605 22.5174 61.8874 22.8666L63.0539 14.6051ZM66.254 42.3194C65.3163 42.3849 64.4767 42.1329 63.7352 41.5632C62.9751 41.0149 62.5622 40.2719 62.4966 39.3342C62.4367 38.4763 62.6066 37.7527 63.0065 37.1634C63.4063 36.574 63.9535 36.0847 64.648 35.6953C65.324 35.3272 66.228 34.9232 67.3601 34.4831L69.7564 17.1437C70.0215 15.2005 70.627 13.8249 71.573 13.017C72.5389 12.2076 73.6303 11.7604 74.8473 11.6753C76.0644 11.5902 77.2534 11.6775 78.4143 11.9371C79.5952 12.1954 81.0979 12.6115 82.9224 13.1857L82.1618 18.652L83.9575 18.5265L83.8017 19.7403L81.9762 19.868L80.7186 28.9779C80.6597 29.2827 80.6422 29.6047 80.6659 29.9439C80.6938 30.3429 80.8038 30.6259 80.9959 30.793C81.2066 30.9386 81.5314 30.9961 81.9703 30.9654C82.5489 30.9249 83.0708 30.6479 83.5361 30.1342C84 29.6005 84.3145 28.9369 84.4796 28.1435L85.7365 28.0556C85.149 30.262 84.3038 31.7946 83.2011 32.6537C82.0969 33.4927 80.9762 33.952 79.839 34.0315C78.8813 34.0985 78.0823 33.8537 77.4419 33.297C76.8215 32.7389 76.4694 31.8613 76.3857 30.6642C76.3508 30.1654 76.3853 29.5115 76.4891 28.7022L77.6667 20.1693L73.6266 20.4518L71.345 36.8509C71.0799 38.7942 70.4644 40.1704 69.4985 40.9798C68.5525 41.7877 67.4711 42.2343 66.254 42.3194ZM77.8524 18.9534L78.574 13.7905C78.2051 13.6759 77.7585 13.5969 77.2342 13.5534C76.7284 13.4885 76.3458 13.4651 76.0865 13.4832C75.6675 13.5125 75.2803 13.71 74.925 14.0757C74.5696 14.4414 74.3336 15.0794 74.2168 15.9898L73.7823 19.238L77.8524 18.9534ZM65.3795 39.704C65.7386 39.6789 66.0645 39.4656 66.3572 39.0642C66.6513 38.6828 66.8596 38.0768 66.9819 37.2462L67.2197 35.4854C66.1874 35.9184 65.398 36.3846 64.8515 36.884C64.3064 37.4033 64.0603 38.042 64.1133 38.8001C64.1301 39.0395 64.2651 39.2506 64.5185 39.4334C64.7733 39.6361 65.0602 39.7263 65.3795 39.704ZM89.1418 33.381C87.6654 33.4843 86.4917 33.1854 85.6207 32.4845C84.7483 31.7636 84.2549 30.5851 84.1405 28.9491C84.0442 27.5725 84.2075 26.0373 84.6304 24.3437C85.0533 22.6501 85.8314 21.1622 86.9647 19.88C88.0967 18.5779 89.6003 17.8612 91.4758 17.7301C93.6704 17.5766 94.8347 18.4576 94.9686 20.3729C95.0467 21.4902 94.7994 22.54 94.2265 23.5223C93.6536 24.5047 92.8587 25.3221 91.8418 25.9746C90.8234 26.6072 89.7185 27.0053 88.527 27.1688C88.5289 27.7701 88.5369 28.1705 88.5508 28.37C88.6192 29.3477 88.8355 30.0042 89.1998 30.3396C89.5627 30.655 90.1232 30.7862 90.8814 30.7332C91.9587 30.6579 92.8591 30.3443 93.5823 29.7925C94.3255 29.2393 95.1205 28.4219 95.9671 27.3402L96.9846 27.2691C95.0281 31.1149 92.4138 33.1522 89.1418 33.381ZM88.666 25.7155C89.4014 25.624 90.0815 25.3158 90.7064 24.791C91.3513 24.2647 91.8474 23.6185 92.1948 22.8524C92.5622 22.0849 92.7173 21.2922 92.6601 20.4742C92.6029 19.6562 92.3249 19.2646 91.8261 19.2995C91.1078 19.3497 90.4435 20.0277 89.8331 21.3335C89.2427 22.6378 88.8536 24.0985 88.666 25.7155ZM97.324 17.5918L101.634 17.2905L101.374 19.1731C102.011 18.5272 102.587 18.0257 103.103 17.6688C103.64 17.3106 104.227 17.1091 104.866 17.0644C105.504 17.0198 106.018 17.2044 106.408 17.6182C106.818 18.0306 107.044 18.5461 107.088 19.1646C107.128 19.7432 106.974 20.2652 106.626 20.7306C106.277 21.196 105.764 21.4525 105.086 21.4999C104.647 21.5306 104.34 21.4518 104.167 21.2634C104.012 21.0537 103.88 20.7521 103.773 20.3587C103.695 20.1035 103.622 19.9182 103.553 19.8026C103.485 19.6871 103.371 19.6349 103.212 19.6461C102.793 19.6754 102.44 19.7903 102.153 19.9908C101.885 20.1699 101.536 20.485 101.107 20.9361L99.5076 32.4757L95.1981 32.7771L97.324 17.5918Z" fill="#51B9AB"/>
</svg>
