<svg width="150" height="48" viewBox="0 0 150 48" fill="none" xmlns="http://www.w3.org/2000/svg">
<path d="M138.87 37.2883L3.76484 47.2903C1.62116 47.4501 0.0606927 45.604 0.297128 43.1904L2.56691 20.2086C2.80649 17.792 4.75472 15.6888 6.90154 15.5289L142.007 5.52688C144.15 5.37016 145.711 7.21321 145.474 9.62987L143.205 32.6117C142.965 35.0252 141.017 37.1315 138.87 37.2883Z" fill="#F29119"/>
<path d="M142.609 32.6654L7.5036 42.6549C5.35677 42.8148 3.7963 40.9686 4.03588 38.555L6.30566 15.5701C6.54525 13.1566 8.51239 11.0502 10.6403 10.8935L145.745 0.891483C147.889 0.731626 149.45 2.57781 149.213 4.99134L146.94 27.9637C146.704 30.3898 144.752 32.493 142.609 32.6654Z" fill="white"/>
<path d="M7.24828 43.1342C6.77321 43.1383 6.30224 43.0465 5.86387 42.8644C5.42551 42.6823 5.02886 42.4137 4.69794 42.0747C4.2594 41.598 3.93089 41.0318 3.73541 40.4157C3.53992 39.7995 3.48218 39.1484 3.56621 38.5077L5.83598 15.5259C6.09763 12.8867 8.23501 10.5986 10.6057 10.4231L145.711 0.421031C146.232 0.375707 146.758 0.446417 147.249 0.62804C147.739 0.809663 148.183 1.09765 148.548 1.47107C148.987 1.94788 149.315 2.51402 149.511 3.13006C149.707 3.7461 149.766 4.39723 149.683 5.03807L147.426 28.0199C147.164 30.6591 145.024 32.9472 142.656 33.1227L7.55092 43.1216C7.45635 43.131 7.34286 43.1342 7.24828 43.1342ZM145.998 1.35196H145.78L10.675 11.3509C8.78354 11.4919 6.98978 13.4415 6.77857 15.6074L4.50564 38.5892C4.43629 39.0941 4.47819 39.6078 4.62843 40.0949C4.77867 40.5821 5.03366 41.0309 5.37572 41.4102C5.64589 41.6839 5.97382 41.8945 6.33583 42.0267C6.69783 42.159 7.08486 42.2097 7.46895 42.1751L142.574 32.173C144.466 32.0351 146.256 30.0855 146.471 27.9196L148.74 4.93778C148.81 4.43319 148.769 3.91954 148.619 3.43244C148.469 2.94533 148.215 2.49641 147.873 2.11677C147.628 1.87092 147.336 1.67654 147.014 1.54516C146.691 1.41378 146.346 1.34809 145.998 1.35196Z" fill="#95C9BF"/>
<path d="M51.71 35.8123C50.9119 35.8681 50.2018 35.7474 49.5795 35.4501C48.9786 35.1713 48.6496 34.6229 48.5924 33.8049C48.5561 33.2862 48.6453 32.6985 48.86 32.0419C49.2471 32.4159 49.5958 32.6722 49.9062 32.8108C50.2366 32.9481 50.5814 33.0042 50.9405 32.9791C51.938 32.9094 52.6372 32.2991 53.0379 31.1483C53.4585 29.9962 53.6214 28.7418 53.5266 27.3851C53.3494 24.8513 52.3131 23.6506 50.4177 23.7832C49.879 23.8208 49.4223 23.8829 49.0474 23.9692L47.3949 35.6028L43.0854 35.9042L45.8245 16.586L50.2118 15.6778L49.2698 22.4199L49.4494 22.4074C50.2075 22.3544 50.8991 22.0654 51.524 21.5405C52.1475 20.9957 52.633 20.3403 52.9804 19.5742C53.3264 18.7881 53.4729 18.016 53.4199 17.2579C53.3557 16.3401 52.9728 15.595 52.2711 15.0225C51.5894 14.4487 50.5802 14.2085 49.2435 14.302C48.0265 14.3871 46.8589 14.7494 45.7408 15.389C44.6213 16.0086 43.7308 16.8928 43.0693 18.0418C42.4278 19.1893 42.1615 20.5412 42.2703 22.0974C42.3219 22.8356 42.428 23.3494 42.5886 23.639C42.7478 23.9085 42.8288 24.0632 42.8316 24.1031C41.7742 24.1771 40.9615 24.0234 40.3935 23.6421C39.8241 23.2408 39.5052 22.5514 39.4369 21.5738C39.342 20.2171 39.7608 18.8947 40.6932 17.6065C41.6256 16.3183 42.9039 15.2465 44.5282 14.3911C46.1511 13.5158 47.8903 13.0132 49.7458 12.8835C51.1424 12.7858 52.3348 12.923 53.3232 13.2949C54.3115 13.6669 55.0603 14.196 55.5694 14.8821C56.0984 15.5669 56.393 16.3382 56.4529 17.1961C56.5171 18.1139 56.3198 19.0199 55.8611 19.914C55.4023 20.8082 54.713 21.5581 53.793 22.1638C55.0054 22.2995 55.9323 22.7961 56.5737 23.6534C57.2136 24.4908 57.5762 25.518 57.6613 26.7351C57.7408 27.8723 57.6078 29.1246 57.2624 30.4921C56.9369 31.8581 56.3095 33.0648 55.3803 34.1122C54.4697 35.1382 53.2462 35.7049 51.71 35.8123ZM63.5567 34.6531C62.0803 34.7564 60.9066 34.4575 60.0356 33.7566C59.1632 33.0357 58.6698 31.8572 58.5554 30.2212C58.4591 28.8446 58.6224 27.3094 59.0453 25.6158C59.4682 23.9222 60.2463 22.4343 61.3796 21.1521C62.5116 19.85 64.0152 19.1333 65.8907 19.0022C68.0853 18.8487 69.2496 19.7297 69.3835 21.645C69.4617 22.7622 69.2143 23.8121 68.6414 24.7944C68.0685 25.7768 67.2736 26.5942 66.2567 27.2467C65.2383 27.8793 64.1334 28.2774 62.9419 28.4409C62.9438 29.0422 62.9518 29.4426 62.9657 29.6421C63.0341 30.6198 63.2504 31.2763 63.6147 31.6117C63.9776 31.9271 64.5381 32.0583 65.2963 32.0053C66.3736 31.93 67.274 31.6164 67.9972 31.0646C68.7405 30.5114 69.5354 29.694 70.382 28.6123L71.3995 28.5411C69.443 32.387 66.8287 34.4243 63.5567 34.6531ZM63.0809 26.9876C63.8163 26.8961 64.4964 26.5879 65.1213 26.0631C65.7662 25.5368 66.2623 24.8906 66.6097 24.1245C66.9771 23.357 67.1322 22.5643 67.075 21.7463C67.0178 20.9283 66.7398 20.5367 66.241 20.5716C65.5227 20.6218 64.8584 21.2998 64.248 22.6056C63.6576 23.9099 63.2685 25.3706 63.0809 26.9876ZM68.58 41.6397C67.6423 41.7053 66.8027 41.4533 66.0611 40.8836C65.301 40.3353 64.8882 39.5923 64.8226 38.6546C64.7626 37.7967 64.9326 37.073 65.3324 36.4837C65.7323 35.8944 66.2695 35.4057 66.9441 35.0177C67.6201 34.6497 68.5241 34.2456 69.6561 33.8056L72.0824 16.4641C72.3475 14.5209 72.953 13.1453 73.8989 12.3373C74.8648 11.528 75.9563 11.0807 77.1733 10.9956C78.111 10.9301 78.9507 11.1821 79.6922 11.7518C80.4523 12.3001 80.8651 13.0431 80.9307 13.9808C80.9628 14.4397 80.9615 14.8508 80.9267 15.2141L79.5202 15.3125C79.5294 14.8707 79.5305 14.6 79.5235 14.5002C79.5012 14.181 79.374 13.9393 79.142 13.7751C78.91 13.6109 78.6344 13.5399 78.3151 13.5622C77.8962 13.5915 77.5004 13.8097 77.1279 14.2167C76.754 14.6037 76.5086 15.2524 76.3918 16.1627L76.0484 18.5625L78.2331 18.4098L78.1073 19.6215L75.8927 19.7764L73.5812 36.1776C73.3175 38.1407 72.7219 39.5156 71.7945 40.3022C70.8685 41.1088 69.797 41.5546 68.58 41.6397ZM67.7054 39.0244C68.5035 38.9686 69.0177 38.1507 69.248 36.5708L69.5157 34.8078C68.4834 35.2409 67.704 35.7064 67.1774 36.2043C66.6323 36.7236 66.3863 37.3623 66.4393 38.1205C66.456 38.3599 66.5911 38.571 66.8445 38.7538C67.0992 38.9565 67.3862 39.0467 67.7054 39.0244ZM83.1065 33.2259C81.6301 33.3292 80.4365 33.0317 79.5255 32.3335C78.6146 31.6354 78.102 30.4683 77.9876 28.8323C77.8927 27.4756 78.0667 25.9498 78.5095 24.2547C78.9524 22.5597 79.7504 21.0704 80.9037 19.7868C82.0556 18.4833 83.5692 17.766 85.4446 17.6348C87.9984 17.4563 89.3869 18.9631 89.6101 22.1553L89.6122 22.1852C89.6735 22.201 89.7839 22.2033 89.9435 22.1921C90.6019 22.1461 91.3482 21.9235 92.1824 21.5243C93.0152 21.1052 93.7633 20.6218 94.4267 20.0742L94.7525 20.8634C94.2172 21.5224 93.496 22.1041 92.589 22.6086C91.7005 23.0917 90.7139 23.4615 89.6292 23.7178C89.5965 25.5445 89.2984 27.1592 88.7349 28.5619C88.1714 29.9647 87.3967 31.0714 86.4108 31.8821C85.425 32.6929 84.3235 33.1408 83.1065 33.2259ZM84.1153 30.4488C84.5941 30.4153 85.0541 30.1125 85.4952 29.5403C85.935 28.9482 86.3017 28.1707 86.5952 27.2079C86.8874 26.2251 87.0728 25.1496 87.1515 23.9812C86.6044 23.8992 86.3058 23.4991 86.2556 22.7808C86.1984 21.9628 86.47 21.4025 87.0703 21.0999C86.9844 20.4443 86.8532 20.0023 86.6769 19.7741C86.4991 19.5259 86.2107 19.4157 85.8117 19.4436C85.1533 19.4897 84.5484 20.0132 83.9968 21.0141C83.4453 22.015 83.0267 23.1971 82.7411 24.5603C82.4555 25.9235 82.3483 27.1139 82.4195 28.1314C82.4864 29.0891 82.6415 29.7298 82.8847 30.0537C83.1265 30.3575 83.5367 30.4892 84.1153 30.4488ZM92.869 17.3863L97.1785 17.085L96.9192 18.9677C97.5556 18.3217 98.1321 17.8203 98.6484 17.4634C99.1847 17.1051 99.7721 16.9036 100.411 16.859C101.049 16.8143 101.563 16.9989 101.953 17.4127C102.363 17.8252 102.589 18.3406 102.632 18.9591C102.673 19.5377 102.519 20.0597 102.171 20.5251C101.822 20.9906 101.309 21.247 100.631 21.2944C100.192 21.3251 99.8853 21.2463 99.7118 21.058C99.5568 20.8483 99.4254 20.5467 99.3177 20.1532C99.2397 19.8981 99.1666 19.7127 99.0984 19.5972C99.0302 19.4817 98.9162 19.4295 98.7566 19.4406C98.3376 19.4699 97.9848 19.5848 97.6981 19.7853C97.4299 19.9645 97.0811 20.2796 96.6515 20.7306L95.0526 32.2703L90.7431 32.5716L92.869 17.3863ZM107.364 31.5898C105.908 31.6916 104.744 31.3921 103.873 30.6911C103.001 29.9702 102.507 28.7918 102.393 27.1558C102.297 25.7791 102.46 24.244 102.883 22.5504C103.306 20.8568 104.084 19.3689 105.217 18.0867C106.349 16.7845 107.853 16.0679 109.728 15.9368C111.923 15.7833 113.087 16.6642 113.221 18.5796C113.299 19.6968 113.052 20.7466 112.479 21.729C111.906 22.7113 111.111 23.5288 110.094 24.1813C109.076 24.8139 107.971 25.2119 106.779 25.3755C106.77 25.8172 106.771 26.1178 106.782 26.2774C106.898 27.9334 107.575 28.7181 108.812 28.6316C109.37 28.5926 109.958 28.4011 110.576 28.0572C111.193 27.7133 111.745 27.2937 112.232 26.7986C111.9 29.789 110.277 31.3861 107.364 31.5898ZM106.888 23.9243C107.645 23.8513 108.336 23.5524 108.961 23.0276C109.606 22.5013 110.102 21.8551 110.449 21.089C110.815 20.3016 110.97 19.4988 110.913 18.6808C110.855 17.8628 110.577 17.4713 110.079 17.5062C109.38 17.555 108.727 18.2423 108.118 19.568C107.527 20.8723 107.117 22.3244 106.888 23.9243Z" fill="#51B9AB"/>
</svg>
