<svg width="40" height="41" viewBox="0 0 40 41" fill="none" xmlns="http://www.w3.org/2000/svg">
<g clip-path="url(#clip0_0_55)">
<path d="M19.9999 0.69043C8.97207 0.69043 -0.00012207 9.66263 -0.00012207 20.6904C-0.00012207 31.7182 8.97207 40.6904 19.9999 40.6904C31.0277 40.6904 39.9999 31.7182 39.9999 20.6904C39.9999 9.66263 31.0277 0.69043 19.9999 0.69043ZM19.9999 38.1904C10.3502 38.1904 2.49989 30.3401 2.49989 20.6904C2.49989 11.0408 10.3502 3.19044 19.9999 3.19044C29.6495 3.19044 37.4999 11.0408 37.4999 20.6904C37.4999 30.3401 29.6495 38.1904 19.9999 38.1904Z" fill="#03BEAE"/>
<path d="M21.2498 8.19043H18.7498V21.208L26.616 29.0742L28.3835 27.3066L21.2498 20.1728V8.19043Z" fill="#03BEAE"/>
</g>
<defs>
<clipPath id="clip0_0_55">
<rect width="40" height="40" fill="white" transform="translate(-0.00012207 0.69043)"/>
</clipPath>
</defs>
</svg>
