<svg width="30" height="31" viewBox="0 0 30 31" fill="none" xmlns="http://www.w3.org/2000/svg">
<g clip-path="url(#clip0_0_9)">
<path d="M17.4188 30.2588C17.2938 30.2792 17.1684 30.2979 17.0425 30.3151C17.1684 30.2979 17.2938 30.2792 17.4188 30.2588Z" fill="#03BEAE"/>
<path d="M17.7188 30.208C17.659 30.219 17.5993 30.2291 17.5396 30.2394C17.5993 30.2291 17.659 30.219 17.7188 30.208Z" fill="#03BEAE"/>
<path d="M16.7073 30.3564C16.561 30.3729 16.4139 30.3876 16.2662 30.3999C16.4139 30.3876 16.561 30.3729 16.7073 30.3564Z" fill="#03BEAE"/>
<path d="M16.9955 30.3213C16.9253 30.3307 16.8546 30.3394 16.7841 30.3476C16.8546 30.3394 16.9253 30.3307 16.9955 30.3213Z" fill="#03BEAE"/>
<path d="M18.1271 30.127C18.0745 30.1382 18.0216 30.1494 17.9688 30.1601C18.0216 30.1494 18.0745 30.1382 18.1271 30.127Z" fill="#03BEAE"/>
<path d="M19.1405 29.875C19.098 29.8871 19.0554 29.8986 19.0128 29.9105C19.0554 29.8986 19.098 29.8871 19.1405 29.875Z" fill="#03BEAE"/>
<path d="M18.8341 29.959C18.7879 29.9711 18.7414 29.9835 18.6949 29.9951C18.7414 29.9835 18.7879 29.9713 18.8341 29.959Z" fill="#03BEAE"/>
<path d="M18.4331 30.0586C18.3842 30.07 18.3347 30.0808 18.2853 30.0918C18.3347 30.0808 18.3842 30.07 18.4331 30.0586Z" fill="#03BEAE"/>
<path d="M16.2615 30.4004C16.1826 30.407 16.1036 30.413 16.0244 30.4182C16.1036 30.413 16.1826 30.407 16.2615 30.4004Z" fill="#03BEAE"/>
<path d="M30.0001 15.4541C30.0001 7.1711 23.2831 0.454102 15.0001 0.454102C6.71712 0.454102 0.00012207 7.1711 0.00012207 15.4541C0.00012207 23.7371 6.71712 30.4541 15.0001 30.4541C15.0882 30.4541 15.1759 30.4523 15.2638 30.4507V18.7738H12.0411V15.0181H15.2638V12.2543C15.2638 9.04907 17.2205 7.30453 20.0797 7.30453C21.4489 7.30453 22.6258 7.40662 22.9689 7.45216V10.8021H20.9973C19.4418 10.8021 19.1406 11.5414 19.1406 12.626V15.0181H22.8599L22.3752 18.7738H19.1406V29.8746C25.4104 28.0772 30.0001 22.3009 30.0001 15.4541Z" fill="#03BEAE"/>
<path d="M15.9912 30.4209C15.8351 30.431 15.6784 30.439 15.5211 30.4442C15.6784 30.439 15.8351 30.431 15.9912 30.4209Z" fill="#03BEAE"/>
<path d="M15.5131 30.4443C15.4302 30.4471 15.3471 30.4491 15.264 30.4505C15.3471 30.4491 15.4302 30.4471 15.5131 30.4443Z" fill="#03BEAE"/>
</g>
<defs>
<clipPath id="clip0_0_9">
<rect width="30" height="30" fill="white" transform="translate(0.00012207 0.454102)"/>
</clipPath>
</defs>
</svg>
