<svg width="35" height="35" viewBox="0 0 35 35" fill="none" xmlns="http://www.w3.org/2000/svg">
<g clip-path="url(#clip0_3_4)">
<path d="M17.5 35C27.165 35 35 27.165 35 17.5C35 7.83502 27.165 0 17.5 0C7.83502 0 0 7.83502 0 17.5C0 27.165 7.83502 35 17.5 35Z" fill="#2AA81A"/>
<path d="M23.6733 11.3266C22.2171 9.85394 20.2823 8.95039 18.2183 8.77913C16.1543 8.60787 14.0971 9.18019 12.4181 10.3928C10.7391 11.6053 9.54889 13.3782 9.06244 15.3914C8.57599 17.4045 8.82532 19.5253 9.76542 21.3707L8.84437 25.8424C8.83451 25.8871 8.83413 25.9333 8.84325 25.9782C8.85237 26.023 8.87079 26.0654 8.89733 26.1026C8.93533 26.159 8.98965 26.2025 9.05302 26.2272C9.11639 26.2519 9.18579 26.2566 9.25194 26.2408L13.6269 25.2023C15.4673 26.1178 17.5728 26.3505 19.5687 25.859C21.5646 25.3676 23.3213 24.1838 24.5262 22.5185C25.7311 20.8532 26.306 18.8144 26.1486 16.7649C25.9911 14.7155 25.1115 12.7884 23.6664 11.3266H23.6733ZM22.3056 22.2342C21.2984 23.2395 20.0016 23.904 18.5973 24.134C17.193 24.3641 15.7519 24.1482 14.4766 23.5168L13.8641 23.2128L11.1769 23.8484V23.8138L11.7434 21.1036L11.444 20.5141C10.792 19.2354 10.5618 17.783 10.7864 16.3653C11.011 14.9476 11.679 13.6375 12.6944 12.623C13.9694 11.3494 15.6978 10.634 17.5 10.634C19.3021 10.634 21.0306 11.3494 22.3056 12.623L22.3355 12.6645C23.5939 13.9422 24.2964 15.6654 24.2899 17.4588C24.2835 19.2521 23.5685 20.9702 22.3009 22.2388L22.3056 22.2342Z" fill="white"/>
<path d="M22.0684 20.2632C21.7391 20.7813 21.2164 21.4145 20.5647 21.5734C19.4134 21.8497 17.6611 21.5734 15.4667 19.5447L15.4391 19.5194C13.5302 17.7372 13.0236 16.252 13.1365 15.0753C13.2032 14.4053 13.7605 13.802 14.2302 13.4059C14.3049 13.3429 14.3933 13.2983 14.4883 13.2756C14.5833 13.2529 14.6823 13.2527 14.7774 13.2751C14.8725 13.2975 14.961 13.3418 15.0359 13.4045C15.1108 13.4672 15.1701 13.5465 15.2088 13.6362L15.9157 15.2342C15.9619 15.3371 15.9792 15.4506 15.9658 15.5625C15.9524 15.6745 15.9088 15.7807 15.8397 15.8697L15.4805 16.3303C15.4059 16.4259 15.3614 16.5415 15.3528 16.6625C15.3442 16.7835 15.3718 16.9043 15.4322 17.0095C15.7734 17.5124 16.1816 17.9664 16.6457 18.3589C17.1449 18.8393 17.7111 19.245 18.3266 19.5632C18.4389 19.6084 18.5622 19.6193 18.6807 19.5942C18.7992 19.5692 18.9076 19.5095 18.992 19.4227L19.4042 19.0036C19.4826 18.9193 19.5829 18.8583 19.6938 18.8274C19.8048 18.7965 19.9221 18.7969 20.0328 18.8286L21.7138 19.3099C21.809 19.337 21.8965 19.3861 21.9693 19.4533C22.042 19.5205 22.0979 19.6039 22.1324 19.6967C22.1669 19.7895 22.1791 19.8892 22.168 19.9876C22.1569 20.086 22.1227 20.1804 22.0684 20.2632Z" fill="white"/>
</g>
<defs>
<clipPath id="clip0_3_4">
<rect width="35" height="35" fill="white"/>
</clipPath>
</defs>
</svg>
