<svg width="30" height="30" viewBox="0 0 30 30" fill="none" xmlns="http://www.w3.org/2000/svg">
<path d="M30 15.0885C30 6.85325 23.3233 0.177246 15.0873 0.177246C6.85121 0.177246 0.174561 6.85325 0.174561 15.0885C0.174561 23.3238 6.85121 29.9998 15.0873 29.9998C23.3233 29.9998 30 23.3238 30 15.0885Z" fill="#03BEAE"/>
<path opacity="0.1" d="M26.3111 5.27869C24.1369 9.26942 21.0622 13.3857 17.2202 17.2273C13.3782 21.0689 9.26153 24.1375 5.27631 26.3114C5.02645 26.0943 4.78379 25.868 4.54833 25.6326C3.12506 24.257 1.98993 22.6118 1.20913 20.7929C0.428332 18.9741 0.017484 17.0181 0.000545995 15.0389C-0.016392 13.0596 0.360919 11.0968 1.11048 9.26493C1.86004 7.43302 2.96684 5.76865 4.36636 4.36888C5.76587 2.96911 7.43009 1.86195 9.26197 1.11195C11.0938 0.36195 13.0567 -0.0158729 15.0361 0.000510902C17.0156 0.0168947 18.9719 0.427157 20.7911 1.20738C22.6103 1.98759 24.256 3.12215 25.6321 4.5449C25.8676 4.78034 26.0939 5.02494 26.3111 5.27869Z" fill="white"/>
<path d="M18.6193 7.24072H11.5554C10.4105 7.24072 9.31246 7.69549 8.5029 8.50497C7.69333 9.31446 7.23853 10.4124 7.23853 11.5571V18.6204C7.23853 19.7652 7.69333 20.8631 8.5029 21.6725C9.31246 22.482 10.4105 22.9368 11.5554 22.9368H18.6193C19.7642 22.9368 20.8622 22.482 21.6717 21.6725C22.4813 20.8631 22.9361 19.7652 22.9361 18.6204V11.5571C22.9361 10.4124 22.4813 9.31446 21.6717 8.50497C20.8622 7.69549 19.7642 7.24072 18.6193 7.24072ZM21.5626 18.0004C21.5626 18.9453 21.1871 19.8516 20.5189 20.5198C19.8506 21.188 18.9443 21.5634 17.9992 21.5634H12.1754C11.2304 21.5634 10.324 21.188 9.65575 20.5198C8.98749 19.8516 8.61206 18.9453 8.61206 18.0004V12.1771C8.61206 11.2322 8.98749 10.3259 9.65575 9.65771C10.324 8.98952 11.2304 8.61413 12.1754 8.61413H17.9992C18.9443 8.61413 19.8506 8.98952 20.5189 9.65771C21.1871 10.3259 21.5626 11.2322 21.5626 12.1771V18.0004Z" fill="white"/>
<path d="M17.9502 12.2554L17.9129 12.2181L17.8815 12.1867C17.1396 11.4474 16.1347 11.0325 15.0873 11.033C14.5584 11.0366 14.0354 11.1444 13.5481 11.3502C13.0608 11.5559 12.6189 11.8557 12.2475 12.2323C11.8762 12.6089 11.5826 13.055 11.3838 13.5451C11.1849 14.0352 11.0845 14.5596 11.0884 15.0885C11.0876 16.1618 11.5107 17.192 12.2657 17.955C12.6355 18.3293 13.0762 18.6261 13.562 18.8283C14.0478 19.0304 14.569 19.1337 15.0952 19.1322C15.8844 19.1156 16.6518 18.8698 17.3038 18.4247C17.9557 17.9795 18.464 17.3543 18.7667 16.6252C19.0694 15.8962 19.1533 15.0948 19.0083 14.3189C18.8633 13.5429 18.4957 12.826 17.9502 12.2554ZM15.0873 17.749C14.5596 17.7564 14.0415 17.6067 13.5991 17.3188C13.1566 17.031 12.8098 16.6182 12.6027 16.1327C12.3956 15.6473 12.3375 15.1112 12.436 14.5927C12.5344 14.0742 12.7848 13.5966 13.1554 13.2208C13.526 12.845 14 12.5879 14.5171 12.4822C15.0342 12.3765 15.5711 12.4269 16.0595 12.6272C16.5478 12.8274 16.9656 13.1683 17.2596 13.6066C17.5537 14.0449 17.7107 14.5607 17.7108 15.0885C17.7134 15.4355 17.6475 15.7795 17.5171 16.1011C17.3866 16.4226 17.1941 16.7153 16.9504 16.9623C16.7068 17.2094 16.4168 17.4061 16.0972 17.541C15.7775 17.676 15.4343 17.7467 15.0873 17.749ZM20.2734 10.8466C20.2744 10.9725 20.2506 11.0974 20.2033 11.2141C20.1561 11.3308 20.0862 11.437 19.9978 11.5267C19.9094 11.6163 19.8042 11.6877 19.6882 11.7366C19.5722 11.7856 19.4477 11.8112 19.3217 11.8119C19.1969 11.8119 19.0733 11.7871 18.9581 11.7389C18.8429 11.6907 18.7384 11.6202 18.6507 11.5314C18.5177 11.3965 18.4273 11.2256 18.3906 11.0398C18.3539 10.8541 18.3726 10.6616 18.4442 10.4864C18.5159 10.3111 18.6374 10.1607 18.7938 10.0538C18.9501 9.94699 19.1344 9.88837 19.3237 9.88525C19.5453 9.88521 19.7599 9.96298 19.93 10.105L19.9497 10.1246C19.9813 10.1504 20.0102 10.1793 20.036 10.2109L20.0576 10.2345C20.198 10.4075 20.2743 10.6238 20.2734 10.8466Z" fill="white"/>
</svg>
