<svg width="261" height="91" viewBox="0 0 261 91" fill="none" xmlns="http://www.w3.org/2000/svg">
<path d="M241.836 64.7589L6.7528 82.2624C3.02281 82.5421 0.307589 79.3113 0.718986 75.0877L4.6684 34.8695C5.08528 30.6404 8.47519 26.9597 12.2107 26.68L247.294 9.17643C251.024 8.90217 253.739 12.1275 253.327 16.3567L249.378 56.5748C248.961 60.7985 245.571 64.4846 241.836 64.7589Z" fill="#F29119"/>
<path d="M248.341 56.6676L13.2582 74.1492C9.52275 74.429 6.80754 71.1982 7.22442 66.9745L11.1738 26.7509C11.5907 22.5272 15.0135 18.8411 18.7161 18.5668L253.799 1.06327C257.529 0.783519 260.244 4.01435 259.833 8.23802L255.878 48.4397C255.467 52.6853 252.071 56.3659 248.341 56.6676Z" fill="white"/>
<path d="M12.814 74.9886C11.9873 74.9958 11.1679 74.8352 10.4051 74.5165C9.64234 74.1978 8.95218 73.7277 8.37637 73.1346C7.61331 72.3003 7.04171 71.3094 6.70157 70.2312C6.36143 69.153 6.26095 68.0134 6.40716 66.8923L10.3566 26.6742C10.8118 22.0556 14.5309 18.0513 18.6558 17.7441L253.739 0.240589C254.646 0.161272 255.56 0.285014 256.414 0.602854C257.268 0.920695 258.041 1.42466 258.676 2.07816C259.439 2.91257 260.011 3.90332 260.352 4.98139C260.693 6.05947 260.795 7.19893 260.65 8.32041L256.723 48.5385C256.268 53.1572 252.543 57.1614 248.424 57.4686L13.3406 74.9667C13.176 74.9831 12.9785 74.9886 12.814 74.9886ZM254.238 1.86972H253.86L18.7765 19.3678C15.4853 19.6146 12.3642 23.0265 11.9967 26.8168L8.04177 67.035C7.9211 67.9184 7.994 68.8175 8.25542 69.6699C8.51684 70.5224 8.96052 71.3078 9.55571 71.9717C10.0258 72.4506 10.5964 72.8191 11.2263 73.0506C11.8562 73.282 12.5296 73.3707 13.1979 73.3101L248.281 55.8066C251.572 55.5652 254.688 52.1533 255.061 48.363L259.01 8.14489C259.132 7.26186 259.06 6.36299 258.799 5.51055C258.539 4.65812 258.096 3.8725 257.502 3.20813C257.075 2.77789 256.566 2.43772 256.006 2.20781C255.445 1.9779 254.844 1.86294 254.238 1.86972Z" fill="#95C9BF"/>
<path d="M28.2935 64.6489C26.7064 62.9339 26.1579 60.0505 26.6479 55.9987C27.2118 51.9773 28.2846 48.0439 29.8403 44.2931C31.4234 40.1649 33.6628 36.3196 36.472 32.9056C39.1708 29.6839 42.1164 27.956 45.3088 27.722C46.2845 27.6205 47.2705 27.7023 48.216 27.9634C46.4278 29.086 44.5775 31.2691 42.6649 34.5128C40.6723 37.9294 39.0083 41.5275 37.6953 45.2585C36.4338 48.598 35.5488 52.0679 35.0568 55.6037C34.8155 57.6881 34.8886 59.3063 35.2763 60.4582C35.3896 60.9646 35.6883 61.4103 36.1136 61.7077C36.5389 62.0051 37.06 62.1327 37.5746 62.0654C39.4323 61.9301 41.4435 60.4326 43.6084 57.5729C45.9967 54.3121 47.9375 50.746 49.3789 46.9699C50.9711 43.1051 52.0481 39.0478 52.5823 34.9022C52.8648 33.0111 52.8925 31.0906 52.6646 29.1921C52.6029 28.5751 52.4093 27.9786 52.097 27.4429C51.7847 26.9073 51.361 26.445 50.8545 26.0874C49.8781 25.4346 48.419 25.1768 46.4662 25.3249C43.5376 25.5411 40.6865 26.3669 38.0957 27.7494C35.4898 29.1146 33.2236 31.0472 31.464 33.4048C29.7094 35.7429 28.6128 38.5081 28.288 41.4133C28.1529 42.1605 28.1529 42.926 28.288 43.6732C28.382 43.9374 28.4446 44.2117 28.4745 44.4905C26.5766 44.6331 25.1833 44.3589 24.3112 43.6568C23.439 42.9546 23.0934 41.7589 23.2909 40.0639C23.6054 37.4054 24.9804 34.7797 27.4158 32.187C30.0635 29.447 33.2025 27.229 36.6695 25.6486C40.2681 23.9166 44.1575 22.8694 48.1392 22.5603C52.8932 22.1947 56.1843 23.2497 58.0128 25.7253C59.8412 28.201 60.4775 31.75 59.9217 36.3723C59.3202 40.8967 58.0367 45.3039 56.1149 49.4437C54.1424 53.9273 51.2926 57.9707 47.7333 61.3358C44.4254 64.5715 40.078 66.5305 35.4628 66.865C32.2703 67.1064 29.8806 66.3677 28.2935 64.6489Z" fill="#51B9AB"/>
<path d="M73.004 62.2082C72.5218 61.5667 72.1758 60.8334 71.9871 60.0534C71.7985 59.2733 71.7712 58.4629 71.907 57.6719C72.0339 56.7335 72.2376 55.807 72.5158 54.9018C72.8303 53.8706 73.1485 52.8631 73.4703 51.8794C73.7884 50.9031 74.0188 50.2723 74.1175 49.998C74.5783 48.6267 75.0226 47.2554 75.445 45.9444C75.795 44.8972 76.0538 43.8217 76.2184 42.73C76.4488 40.7663 75.8838 39.8337 74.5125 39.9325C73.9572 40.0073 73.4228 40.1942 72.9419 40.4818C72.4611 40.7694 72.0436 41.1517 71.715 41.6055C70.7473 42.8021 69.9787 44.1468 69.4386 45.5878L63.3664 64.4462L55.1384 65.0551L64.6006 35.6814L72.8285 35.0725L71.8686 38.1278C74.0224 35.824 76.3738 34.5789 78.9226 34.3924C80.8589 34.2443 82.3345 34.6721 83.3493 35.6649C84.364 36.6578 84.737 38.2595 84.4792 40.4536C84.3104 41.7301 84.0296 42.9892 83.64 44.2165C83.2085 45.6024 82.6307 47.2992 81.9066 49.3068C81.4623 50.5246 81.0455 51.7094 80.667 52.8668C80.3513 53.748 80.1199 54.6571 79.9758 55.582C79.8512 56.1842 79.9589 56.8113 80.2775 57.3373C80.5682 57.7377 81.1332 57.8859 81.9725 57.842C82.5252 57.8066 83.0651 57.6601 83.5599 57.4113C84.0547 57.1625 84.4942 56.8164 84.8522 56.3938C85.8548 55.1732 86.6972 53.8294 87.359 52.3951L89.7561 52.2195C87.8472 56.5639 85.8853 59.5278 83.8704 61.1112C81.8554 62.6946 79.8661 63.5613 77.9024 63.7112C75.573 63.8794 73.9402 63.3784 73.004 62.2082Z" fill="#51B9AB"/>
<path d="M88.1819 60.7326C86.8143 59.3686 86.3133 57.0995 86.679 53.9254C87.113 50.8484 87.9829 47.849 89.2625 45.0173C90.6583 41.764 92.6934 38.8243 95.247 36.3725C97.7315 33.9194 101.017 32.4433 104.501 32.2146C108.68 31.9001 110.553 33.5969 110.118 37.305C109.834 39.5241 108.961 41.6266 107.589 43.3936C106.138 45.3157 104.313 46.9241 102.224 48.122C100.178 49.3368 97.9141 50.1381 95.5596 50.4806C95.3786 51.3363 95.2744 51.9178 95.236 52.2249C94.8703 55.4283 95.8613 56.9423 98.209 56.7668C99.4442 56.6392 100.641 56.2662 101.731 55.6697C103.014 55.0028 104.212 54.1812 105.296 53.2233C103.596 59.0121 99.9698 62.1204 94.4187 62.5482C91.6431 62.7091 89.5642 62.1039 88.1819 60.7326ZM100.535 45.9223C101.927 44.8896 103.114 43.606 104.034 42.1375C104.943 40.742 105.526 39.1596 105.74 37.5079C105.927 35.9282 105.545 35.173 104.594 35.2425C103.259 35.3412 101.796 36.6632 100.206 39.2084C98.5593 41.8583 97.2458 44.701 96.2947 47.6722C97.8413 47.4797 99.3068 46.8712 100.535 45.9114V45.9223Z" fill="#51B9AB"/>
<path d="M124.621 57.5344C122.865 55.4902 122.289 51.9211 122.893 46.8271C123.502 42.2827 124.701 37.837 126.458 33.6021C128.28 28.9695 130.977 24.731 134.401 21.1175C137.49 17.7005 141.776 15.6044 146.37 15.2647C149.219 15.0563 151.442 15.5207 153.04 16.658C154.638 17.7953 155.283 19.6786 154.976 22.3078C154.863 23.7376 154.369 25.1109 153.545 26.2847C153.167 26.7781 152.685 27.1817 152.133 27.4663C151.581 27.7509 150.973 27.9093 150.352 27.9303C149.774 28.0195 149.182 27.9492 148.641 27.7269C148.099 27.5045 147.629 27.1386 147.28 26.6687C148.148 26.1271 148.862 25.3715 149.354 24.4745C149.978 23.4746 150.38 22.3522 150.533 21.1834C150.61 20.7535 150.601 20.3127 150.507 19.8863C150.412 19.4599 150.235 19.0563 149.985 18.6985C149.513 18.0842 148.668 17.8209 147.45 17.9086C145.436 18.0622 143.351 19.6036 141.197 22.5327C138.819 25.8856 136.912 29.5493 135.531 33.421C133.99 37.4078 132.938 41.5668 132.399 45.8068C132.048 48.736 132.278 50.9411 133.084 52.3892C133.891 53.8373 135.586 54.4955 138.175 54.3035C140.425 54.1366 142.609 53.4655 144.565 52.3398C146.643 51.144 148.478 49.5679 149.974 47.6938L151.219 48.1765C150.024 50.6177 148.344 52.7901 146.282 54.5614C144.373 56.2307 142.208 57.5826 139.87 58.5656C137.907 59.4129 135.822 59.946 133.693 60.1454C129.411 60.4525 126.387 59.5822 124.621 57.5344Z" fill="#51B9AB"/>
<path d="M150.248 56.6018C149.26 55.5048 148.909 53.8318 149.178 51.5224C149.368 50.2332 149.671 48.9631 150.083 47.7266L159.633 18.2706L168.212 16.4824L157.933 48.2313C157.71 48.8328 157.561 49.459 157.488 50.0963C157.397 50.8715 157.512 51.4091 157.834 51.7089C158.086 51.8801 158.369 51.9998 158.668 52.061C158.966 52.1222 159.274 52.1237 159.573 52.0655C160.815 51.9149 161.964 51.3324 162.82 50.4199C163.921 49.3386 164.77 48.0275 165.305 46.5802L167.702 46.4047C165.804 50.6869 163.663 53.6489 161.279 55.2908C158.894 56.9328 156.62 57.8378 154.455 58.0061C152.639 58.1432 151.23 57.6715 150.248 56.6018Z" fill="#51B9AB"/>
<path d="M166.216 54.929C164.83 53.5577 164.323 51.2904 164.696 48.1272C165.133 45.0527 166.003 42.0554 167.28 39.2246C168.674 35.9582 170.713 33.0068 173.275 30.5469C175.759 28.0933 179.045 26.6188 182.529 26.3945C186.709 26.0837 188.581 27.7786 188.146 31.4794C187.862 33.7002 186.989 35.8045 185.617 37.5735C184.165 39.4943 182.34 41.1024 180.252 42.3019C178.206 43.5143 175.942 44.3155 173.588 44.6605C173.374 45.8234 173.248 46.5968 173.198 46.9808C172.979 48.8751 173.151 50.133 173.714 50.7547C174.277 51.3764 175.283 51.636 176.731 51.5336C178.678 51.4161 180.558 50.7818 182.178 49.696C184.119 48.3022 185.908 46.7082 187.515 44.9403L189.451 44.7977C184.372 52.2467 178.715 56.2034 172.48 56.6678C169.664 56.8763 167.576 56.2967 166.216 54.929ZM178.568 40.0474C179.956 39.022 181.14 37.7479 182.063 36.29C182.975 34.9064 183.559 33.332 183.769 31.6878C183.955 30.1081 183.573 29.3529 182.622 29.4224C181.254 29.5284 179.772 30.8431 178.174 33.3663C176.512 36.0065 175.223 38.864 174.345 41.8576C175.876 41.6259 177.322 41.0024 178.541 40.0474H178.568Z" fill="#51B9AB"/>
<path d="M188.201 53.2615C186.932 51.8645 186.487 49.5662 186.868 46.3664C187.295 43.2001 188.22 40.1213 189.61 37.2444C191.045 34.1021 193.069 31.2643 195.573 28.8848C197.811 26.6593 200.765 25.2989 203.911 25.0451C205.468 24.9245 206.598 25.111 207.295 25.5937C207.628 25.8119 207.89 26.1232 208.048 26.4888C208.206 26.8545 208.253 27.2584 208.184 27.6506L208.134 28.0565L209.127 24.9409L217.355 24.332L210.926 44.304C210.704 44.9055 210.555 45.5317 210.482 46.169C210.284 47.8146 210.965 48.5989 212.522 48.4838C213.104 48.4151 213.666 48.2278 214.173 47.9334C214.679 47.6391 215.12 47.2439 215.468 46.7723C216.457 45.5514 217.239 44.1764 217.783 42.7023L220.18 42.5267C218.282 46.7943 216.209 49.7472 213.96 51.3855C211.711 53.0238 209.542 53.9215 207.454 54.0788C205.86 54.1994 204.631 53.8429 203.768 53.0091C202.905 52.1754 202.481 50.8955 202.495 49.1694C201.313 50.7247 199.923 52.1108 198.365 53.2889C196.911 54.369 195.175 55.0053 193.368 55.121C191.188 55.2782 189.466 54.6584 188.201 53.2615ZM200.702 47.6555C201.799 46.5825 202.608 45.2507 203.055 43.7829L207.333 30.5085C207.392 29.9964 207.25 29.4817 206.938 29.0713C206.735 28.8324 206.472 28.6516 206.176 28.5475C205.881 28.4435 205.562 28.4198 205.254 28.4789C203.737 28.5923 202.263 29.5924 200.833 31.4794C199.315 33.5243 198.098 35.776 197.218 38.1659C196.34 40.336 195.73 42.6055 195.403 44.9238C195.172 46.8546 195.302 48.0687 195.792 48.566C196.041 48.8162 196.344 49.0057 196.678 49.1198C197.012 49.234 197.368 49.2697 197.718 49.2243C198.862 49.0559 199.914 48.5025 200.702 47.6555Z" fill="#51B9AB"/>
<path d="M232.225 50.3819C231.458 49.2191 231.187 47.6905 231.414 45.7962C231.537 44.8661 231.74 43.9484 232.022 43.0536C232.33 42.0187 232.646 41.0112 232.971 40.0312C233.295 39.0493 233.52 38.424 233.619 38.1443C234.079 36.7729 234.522 35.4217 234.946 34.0906C235.298 33.0459 235.557 31.9721 235.72 30.8817C235.954 28.9143 235.385 27.9818 234.014 28.0842C233.46 28.1554 232.927 28.3379 232.447 28.6207C231.966 28.9036 231.547 29.2808 231.216 29.7298C230.252 30.9286 229.483 32.2727 228.94 33.7121L222.868 52.5706L214.64 53.1794L224.102 23.8112L232.33 23.1968L231.348 26.2521C233.502 23.952 235.853 22.7068 238.402 22.5167C240.336 22.374 241.812 22.7982 242.829 23.7893C243.845 24.7803 244.222 26.3783 243.958 28.5834C243.792 29.8585 243.511 31.1161 243.119 32.3408C242.691 33.7341 242.114 35.4309 241.386 37.4312C240.942 38.6489 240.525 39.8337 240.146 40.9911C239.831 41.8818 239.6 42.8 239.455 43.7338C239.334 44.3342 239.441 44.9585 239.757 45.4836C240.053 45.884 240.612 46.0321 241.452 45.9937C242.122 45.9911 242.781 45.8234 243.372 45.5055C243.028 47.284 242.113 48.9018 240.766 50.1131C239.542 51.1826 238 51.8205 236.378 51.9288C234.381 52.0549 232.993 51.5503 232.225 50.3819Z" fill="#51B9AB"/>
</svg>
