<svg width="52" height="41" viewBox="0 0 52 41" fill="none" xmlns="http://www.w3.org/2000/svg">
<g clip-path="url(#clip0_0_61)">
<path d="M46.7292 1.53076H4.50281C2.02306 1.53076 0 3.55162 0 6.03358V36.0523C0 38.5259 2.01406 40.5552 4.50281 40.5552H46.7292C49.2028 40.5552 51.232 38.5411 51.232 36.0523V6.03358C51.232 3.56003 49.218 1.53076 46.7292 1.53076ZM46.1074 4.53264L25.7115 24.9287L5.13911 4.53264H46.1074ZM3.00188 35.4307V6.64086L17.4588 20.9738L3.00188 35.4307ZM5.1245 37.5533L19.5905 23.0872L24.6594 28.1126C25.2462 28.6943 26.1931 28.6924 26.7774 28.108L31.7198 23.1656L46.1075 37.5533H5.1245ZM48.2301 35.4306L33.8425 21.043L48.2301 6.65516V35.4306Z" fill="#03BEAE"/>
</g>
<defs>
<clipPath id="clip0_0_61">
<rect width="51.7073" height="40" fill="white" transform="translate(0 0.766602)"/>
</clipPath>
</defs>
</svg>
