<svg width="40" height="41" viewBox="0 0 40 41" fill="none" xmlns="http://www.w3.org/2000/svg">
<g clip-path="url(#clip0_0_33)">
<path d="M38.8803 30.8853L30.7987 25.4959C29.7732 24.8174 28.3984 25.0407 27.6402 26.0088L25.2861 29.0356C24.9836 29.4345 24.4337 29.5502 23.996 29.3071L23.5482 29.0602C22.0638 28.2511 20.2168 27.2438 16.4953 23.521C12.7739 19.7983 11.7646 17.9499 10.9555 16.4682L10.7099 16.0204C10.4635 15.5828 10.577 15.0305 10.9761 14.7256L14.0008 12.3722C14.9686 11.6139 15.1921 10.2396 14.5145 9.21368L9.12498 1.13212C8.43048 0.0874402 7.0371 -0.226166 5.96194 0.42015L2.58252 2.45017C1.52069 3.07442 0.741665 4.08541 0.4088 5.2713C-0.80812 9.70529 0.107356 17.3577 11.38 28.6317C20.3472 37.5982 27.0228 40.0095 31.6112 40.0095C32.6672 40.014 33.7191 39.8766 34.7385 39.601C35.9246 39.2685 36.9357 38.4894 37.5596 37.4272L39.5916 34.0499C40.2389 32.9745 39.9254 31.5802 38.8803 30.8853ZM38.4451 33.3671L36.4178 36.7465C35.9698 37.5132 35.2426 38.0768 34.3884 38.3195C30.295 39.4433 23.1437 38.5125 12.3215 27.6902C1.49925 16.868 0.568488 9.7173 1.69231 5.62335C1.93527 4.76814 2.49964 4.03995 3.2672 3.5913L6.64662 1.56393C7.11313 1.28323 7.71788 1.41929 8.01925 1.87263L10.9469 6.26802L13.4041 9.95348C13.6984 10.3985 13.6017 10.9949 13.1819 11.3242L10.1565 13.6775C9.23578 14.3816 8.97285 15.6554 9.53972 16.6664L9.77995 17.1029C10.6303 18.6625 11.6876 20.6027 15.5474 24.4619C19.4072 28.321 21.3467 29.3783 22.9056 30.2286L23.3428 30.4694C24.3537 31.0362 25.6276 30.7734 26.3316 29.8527L28.685 26.8272C29.0143 26.4077 29.6105 26.3111 30.0557 26.605L38.1365 31.9945C38.5902 32.2956 38.7262 32.9007 38.4451 33.3671Z" fill="#03BEAE"/>
</g>
<defs>
<clipPath id="clip0_0_33">
<rect width="40" height="40" fill="white" transform="translate(0 0.0830078)"/>
</clipPath>
</defs>
</svg>
