<svg width="139" height="26" viewBox="0 0 139 26" fill="none" xmlns="http://www.w3.org/2000/svg">
<path d="M98.2539 0.144531L101.06 8.78182H110.142L102.795 14.12L105.601 22.7572L98.2539 17.4191L90.9066 22.7572L93.713 14.12L86.3657 8.78182H95.4475L98.2539 0.144531Z" fill="url(#paint0_linear_0_361)"/>
<path d="M126.5 0L129.306 8.63729H138.388L131.041 13.9754L133.847 22.6127L126.5 17.2746L119.153 22.6127L121.959 13.9754L114.612 8.63729H123.694L126.5 0Z" fill="url(#paint1_linear_0_361)"/>
<path d="M69.9999 0.144531L72.8063 8.78182H81.8881L74.5408 14.12L77.3472 22.7572L69.9999 17.4191L62.6526 22.7572L65.459 14.12L58.1117 8.78182H67.1935L69.9999 0.144531Z" fill="url(#paint2_linear_0_361)"/>
<path d="M41.7458 0.144531L44.5523 8.78182H53.6341L46.2867 14.12L49.0932 22.7572L41.7458 17.4191L34.3985 22.7572L37.205 14.12L29.8576 8.78182H38.9394L41.7458 0.144531Z" fill="url(#paint3_linear_0_361)"/>
<path d="M13.4918 0.144531L16.2982 8.78182H25.38L18.0327 14.12L20.8391 22.7572L13.4918 17.4191L6.14451 22.7572L8.95093 14.12L1.60361 8.78182H10.6854L13.4918 0.144531Z" fill="url(#paint4_linear_0_361)"/>
<defs>
<linearGradient id="paint0_linear_0_361" x1="81.8998" y1="8.79045" x2="110.754" y2="8.79045" gradientUnits="userSpaceOnUse">
<stop offset="1" stop-color="#F29119"/>
</linearGradient>
<linearGradient id="paint1_linear_0_361" x1="110.146" y1="8.64592" x2="139" y2="8.64592" gradientUnits="userSpaceOnUse">
<stop offset="1" stop-color="#F29119"/>
</linearGradient>
<linearGradient id="paint2_linear_0_361" x1="53.6458" y1="8.79045" x2="82.4999" y2="8.79045" gradientUnits="userSpaceOnUse">
<stop offset="1" stop-color="#F29119"/>
</linearGradient>
<linearGradient id="paint3_linear_0_361" x1="25.3918" y1="8.79045" x2="54.2459" y2="8.79045" gradientUnits="userSpaceOnUse">
<stop offset="1" stop-color="#F29119"/>
</linearGradient>
<linearGradient id="paint4_linear_0_361" x1="-2.86226" y1="8.79045" x2="25.9918" y2="8.79045" gradientUnits="userSpaceOnUse">
<stop offset="1" stop-color="#F29119"/>
</linearGradient>
</defs>
</svg>
