<svg width="75" height="73" viewBox="0 0 75 73" fill="none" xmlns="http://www.w3.org/2000/svg">
<g clip-path="url(#clip0_0_412)">
<path d="M37.6288 0.87085C17.1706 0.87085 0.586029 16.9886 0.586029 36.8708C0.586029 56.7531 17.1706 72.8708 37.6288 72.8708C58.087 72.8708 74.6716 56.7531 74.6716 36.8708C74.6477 16.9981 58.0771 0.894053 37.6288 0.87085Z" fill="white"/>
<path d="M37.5495 48.6232C47.4097 48.6232 55.4029 40.6391 55.4029 30.7903C55.4029 20.9415 47.4097 12.9575 37.5495 12.9575C27.6893 12.9575 19.6961 20.9415 19.6961 30.7903C19.6961 40.6391 27.6893 48.6232 37.5495 48.6232Z" fill="#51B9AB"/>
<path d="M23.0861 41.2231L16.9432 51.8592L24.1129 51.479L27.3703 57.8712L33.0529 48.0309C28.9812 46.9788 25.4849 44.5298 23.0861 41.2231Z" fill="#51B9AB"/>
<path d="M52.0482 41.1699C49.6671 44.4854 46.1708 46.9433 42.108 48.0131L47.8083 57.8711L51.0657 51.4788L58.2354 51.859L52.0482 41.1699Z" fill="#51B9AB"/>
<path d="M37.5495 43.7161C44.6965 43.7161 50.4903 37.929 50.4903 30.7902C50.4903 23.6514 44.6965 17.8643 37.5495 17.8643C30.4024 17.8643 24.6086 23.6514 24.6086 30.7902C24.6086 37.929 30.4024 43.7161 37.5495 43.7161Z" fill="#51B9AB"/>
<path d="M46.4187 29.3935C46.817 29.0045 46.5957 28.3237 46.0469 28.2441L40.9396 27.5015C40.7184 27.4661 40.5325 27.3335 40.4351 27.1301L38.1514 22.5061C37.9036 22.0022 37.1866 22.0022 36.9388 22.5061L34.6639 27.1301C34.5666 27.3246 34.3718 27.4661 34.1594 27.5015L29.0521 28.2441C28.5033 28.3237 28.282 29.0045 28.6803 29.3935L32.3714 32.9919C32.5307 33.151 32.6016 33.372 32.5661 33.5842L31.6987 38.6591C31.6013 39.2073 32.1855 39.6317 32.6812 39.3664L37.2486 36.9704C37.4433 36.8643 37.6823 36.8643 37.877 36.9704L42.4444 39.3664C42.9401 39.6228 43.5154 39.2073 43.4269 38.6591L42.5506 33.5842C42.5152 33.3632 42.586 33.1422 42.7453 32.9919L46.4187 29.3935Z" fill="white"/>
</g>
<defs>
<clipPath id="clip0_0_412">
<rect width="74.0855" height="72" fill="white" transform="translate(0.586029 0.87085)"/>
</clipPath>
</defs>
</svg>
