<svg width="75" height="73" viewBox="0 0 75 73" fill="none" xmlns="http://www.w3.org/2000/svg">
<g clip-path="url(#clip0_0_400)">
<path d="M37.902 0.87085C17.4438 0.87085 0.859253 16.9886 0.859253 36.8708C0.859253 56.7531 17.4438 72.8708 37.902 72.8708C58.3602 72.8708 74.9448 56.7531 74.9448 36.8708C74.9209 16.9981 58.3503 0.894053 37.902 0.87085Z" fill="white"/>
<path d="M55.0252 42.9506C53.8166 46.2223 51.9888 49.0671 49.5918 51.4051C46.8634 54.0663 43.2908 56.1809 38.9731 57.6893C38.8314 57.7386 38.6835 57.779 38.535 57.8089C38.3387 57.8476 38.1391 57.8685 37.9411 57.8712H37.9024C37.6914 57.8712 37.4794 57.85 37.2691 57.8089C37.1205 57.779 36.9747 57.7386 36.8337 57.6903C32.5108 56.1843 28.9337 54.0707 26.2026 51.4096C23.8046 49.0716 21.9771 46.2285 20.7703 42.9567C18.5757 37.0081 18.7006 30.455 18.8011 25.1889L18.8028 25.108C18.823 24.6732 18.8361 24.2164 18.8433 23.712C18.88 21.2356 20.8512 19.1868 23.3309 19.0487C28.5008 18.7605 32.5002 17.0763 35.9174 13.7494L35.9473 13.722C36.5147 13.2022 37.2296 12.9472 37.9411 12.9578C38.6272 12.9667 39.3106 13.2213 39.8578 13.722L39.887 13.7494C43.3049 17.0763 47.3043 18.7605 52.4742 19.0487C54.9538 19.1868 56.9251 21.2356 56.9618 23.712C56.969 24.2198 56.982 24.6759 57.0023 25.108L57.0033 25.1423C57.1035 30.4183 57.2276 36.9844 55.0252 42.9506Z" fill="#51B9AB"/>
<path d="M49.108 35.4144C49.108 41.5731 44.1017 46.5863 37.941 46.6082H37.9016C31.7227 46.6082 26.6948 41.5865 26.6948 35.4144C26.6948 29.2427 31.7227 24.2209 37.9016 24.2209H37.941C44.1017 24.2429 49.108 29.2561 49.108 35.4144Z" fill="white"/>
<path d="M42.9881 33.8024L37.941 38.8444L36.8504 39.9337C36.5928 40.1911 36.2549 40.3196 35.9173 40.3196C35.5794 40.3196 35.2418 40.1911 34.9838 39.9337L32.639 37.5906C32.1237 37.0759 32.1237 36.2422 32.639 35.7272C33.1536 35.2125 33.9893 35.2125 34.5046 35.7272L35.9173 37.1383L41.1226 31.939C41.6378 31.424 42.4735 31.424 42.9881 31.939C43.5034 32.4537 43.5034 33.2884 42.9881 33.8024Z" fill="#51B9AB"/>
</g>
<defs>
<clipPath id="clip0_0_400">
<rect width="74.0855" height="72" fill="white" transform="translate(0.859253 0.87085)"/>
</clipPath>
</defs>
</svg>
