<svg width="75" height="73" viewBox="0 0 75 73" fill="none" xmlns="http://www.w3.org/2000/svg">
<g clip-path="url(#clip0_0_391)">
<path d="M37.284 0.87085C16.8258 0.87085 0.241211 16.9886 0.241211 36.8708C0.241211 56.7531 16.8258 72.8708 37.284 72.8708C57.7421 72.8708 74.3267 56.7531 74.3267 36.8708C74.3029 16.9981 57.7323 0.894053 37.284 0.87085Z" fill="white"/>
<path d="M61.8958 28.885C61.6821 28.2785 61.0953 27.871 60.4357 27.871H44.501L38.7162 13.813C38.3139 13.0433 37.3457 12.7363 36.5539 13.1274C36.2499 13.2775 36.0029 13.5177 35.8485 13.813L30.0668 27.871H14.1322C13.2798 27.8703 12.5881 28.5412 12.5874 29.3696C12.587 29.8335 12.8075 30.2716 13.1846 30.5559L26.2637 40.4559L21.905 55.978C21.6815 56.7774 22.1673 57.6016 22.9899 57.8187C23.4202 57.9324 23.8801 57.8595 24.2511 57.6191L37.2839 49.171L50.3199 57.616C51.0291 58.0757 51.9874 57.8898 52.4605 57.2006C52.7079 56.84 52.7828 56.3931 52.6659 55.9749L48.3042 40.441L61.3833 30.541C61.8973 30.1498 62.1024 29.4867 61.8958 28.885Z" fill="#51B9AB"/>
</g>
<defs>
<clipPath id="clip0_0_391">
<rect width="74.0855" height="72" fill="white" transform="translate(0.241211 0.87085)"/>
</clipPath>
</defs>
</svg>
