<svg width="75" height="73" viewBox="0 0 75 73" fill="none" xmlns="http://www.w3.org/2000/svg">
<g clip-path="url(#clip0_0_382)">
<path d="M37.8229 0.87085C17.3647 0.87085 0.780151 16.9886 0.780151 36.8708C0.780151 56.7531 17.3647 72.8708 37.8229 72.8708C58.2811 72.8708 74.8657 56.7531 74.8657 36.8708C74.8418 16.9981 58.2712 0.894053 37.8229 0.87085Z" fill="white"/>
<path d="M54.742 14.7021H40.7116C39.9761 14.7041 39.271 14.9954 38.7492 15.5131L13.398 40.8351C13.0364 41.1954 13.0357 41.7802 13.3964 42.1414C13.5703 42.3156 13.8065 42.4133 14.0527 42.4128H28.8489C29.3596 42.4128 29.7737 42.8264 29.7737 43.3365V58.1156C29.7738 58.4893 29.9993 58.8263 30.3452 58.9691C30.4571 59.0157 30.5772 59.0395 30.6985 59.0393C30.9439 59.0397 31.1794 58.9428 31.3532 58.7696L56.7045 33.4457C57.2258 32.9273 57.5181 32.2223 57.5164 31.4875V17.4732C57.5163 15.9427 56.2742 14.7021 54.742 14.7021ZM47.344 29.4811C44.7904 29.4811 42.7202 27.4134 42.7202 24.8627C42.7202 22.312 44.7904 20.2443 47.344 20.2443C49.8976 20.2443 51.9677 22.312 51.9677 24.8627C51.9677 27.4134 49.8976 29.4811 47.344 29.4811Z" fill="#51B9AB"/>
</g>
<defs>
<clipPath id="clip0_0_382">
<rect width="74.0855" height="72" fill="white" transform="translate(0.780151 0.87085)"/>
</clipPath>
</defs>
</svg>
