<svg width="30" height="30" viewBox="0 0 30 30" fill="none" xmlns="http://www.w3.org/2000/svg">
<path d="M15 30C23.2843 30 30 23.2843 30 15C30 6.71573 23.2843 0 15 0C6.71573 0 0 6.71573 0 15C0 23.2843 6.71573 30 15 30Z" fill="#03BEAE"/>
<path d="M20.2915 9.70859C19.0433 8.44627 17.3849 7.6718 15.6158 7.52501C13.8466 7.37821 12.0833 7.86877 10.6441 8.90811C9.20496 9.94746 8.18481 11.4671 7.76786 13.1927C7.3509 14.9182 7.56461 16.736 8.37041 18.3178L7.58094 22.1507C7.57249 22.189 7.57216 22.2286 7.57998 22.267C7.5878 22.3054 7.60359 22.3418 7.62634 22.3737C7.65891 22.4221 7.70547 22.4593 7.75979 22.4805C7.8141 22.5016 7.87359 22.5057 7.93028 22.4921L11.6803 21.602C13.2578 22.3867 15.0625 22.5862 16.7732 22.1649C18.484 21.7437 19.9898 20.729 21.0225 19.3016C22.0553 17.8742 22.5481 16.1266 22.4131 14.37C22.2782 12.6133 21.5242 10.9615 20.2855 9.70859H20.2915ZM19.1191 19.0579C18.2559 19.9196 17.1442 20.4891 15.9406 20.6863C14.7369 20.8835 13.5017 20.6985 12.4086 20.1573L11.8836 19.8967L9.58028 20.4415V20.4119L10.0658 18.0889L9.80923 17.5836C9.25033 16.4875 9.05298 15.2426 9.24552 14.0275C9.43806 12.8123 10.0106 11.6894 10.8809 10.8198C11.9738 9.72807 13.4553 9.11485 15 9.11485C16.5447 9.11485 18.0263 9.72807 19.1191 10.8198L19.1448 10.8553C20.2234 11.9505 20.8255 13.4275 20.82 14.9647C20.8144 16.5018 20.2017 17.9745 19.1152 19.0619L19.1191 19.0579Z" fill="white"/>
<path d="M18.9159 17.3683C18.6336 17.8124 18.1856 18.3552 17.627 18.4913C16.6402 18.7282 15.1382 18.4913 13.2573 16.7525L13.2336 16.7308C11.5974 15.2032 11.1632 13.9302 11.2599 12.9216C11.3172 12.3473 11.7948 11.8302 12.1974 11.4907C12.2615 11.4367 12.3372 11.3985 12.4186 11.379C12.5001 11.3595 12.5849 11.3594 12.6665 11.3785C12.748 11.3977 12.8239 11.4357 12.8881 11.4894C12.9523 11.5432 13.003 11.6112 13.0363 11.6881L13.6422 13.0578C13.6817 13.146 13.6966 13.2432 13.6851 13.3392C13.6736 13.4351 13.6363 13.5262 13.577 13.6025L13.2691 13.9973C13.2052 14.0792 13.167 14.1784 13.1596 14.2821C13.1523 14.3858 13.176 14.4893 13.2277 14.5795C13.5202 15.0106 13.8701 15.3997 14.2678 15.7361C14.6958 16.1479 15.1811 16.4956 15.7086 16.7683C15.8049 16.8071 15.9106 16.8164 16.0121 16.795C16.1137 16.7735 16.2066 16.7223 16.279 16.6479L16.6323 16.2887C16.6995 16.2164 16.7854 16.1641 16.8805 16.1377C16.9756 16.1112 17.0762 16.1116 17.1711 16.1387L18.6119 16.5512C18.6936 16.5744 18.7686 16.6166 18.8309 16.6742C18.8933 16.7318 18.9412 16.8033 18.9708 16.8828C19.0004 16.9624 19.0108 17.0478 19.0013 17.1321C18.9917 17.2165 18.9625 17.2974 18.9159 17.3683Z" fill="white"/>
</svg>
